<?xml version="1.0" encoding="UTF-8" standalone="no"?>
<svg width="80px" height="80px" viewBox="0 0 80 80" version="1.1" xmlns="http://www.w3.org/2000/svg" xmlns:xlink="http://www.w3.org/1999/xlink" xmlns:sketch="http://www.bohemiancoding.com/sketch/ns">
    <!-- Generator: Sketch 3.4.4 (17249) - http://www.bohemiancoding.com/sketch -->
    <title>Oval 2 + line_chart</title>
    <desc>Created with Sketch.</desc>
    <defs></defs>
    <g id="Page-1" stroke="none" stroke-width="1" fill="none" fill-rule="evenodd" sketch:type="MSPage">
        <g id="Oval-2-+-line_chart" sketch:type="MSLayerGroup">
            <circle id="Oval-2" fill="#281E28" sketch:type="MSShapeGroup" cx="40" cy="40" r="40"></circle>
            <g id="line_chart" transform="translate(15.000000, 15.000000)" sketch:type="MSShapeGroup">
                <rect id="Rectangle-path" x="0" y="0" width="50" height="50"></rect>
                <circle id="Oval" fill="#FFFFFF" cx="2" cy="25" r="2"></circle>
                <circle id="Oval" fill="#FFFFFF" cx="15" cy="19" r="2"></circle>
                <circle id="Oval" fill="#FFFFFF" cx="25" cy="11" r="2"></circle>
                <circle id="Oval" fill="#FFFFFF" cx="35" cy="17" r="2"></circle>
                <circle id="Oval" fill="#FFFFFF" cx="48" cy="5" r="2"></circle>
                <circle id="Oval" fill="#FFFFFF" cx="2" cy="39" r="2"></circle>
                <circle id="Oval" fill="#FFFFFF" cx="15" cy="41" r="2"></circle>
                <circle id="Oval" fill="#FFFFFF" cx="25" cy="33" r="2"></circle>
                <circle id="Oval" fill="#FFFFFF" cx="35" cy="43" r="2"></circle>
                <circle id="Oval" fill="#FFFFFF" cx="48" cy="31" r="2"></circle>
                <path d="M2,25 L15,19 L25,11 L35,17 L48,5" id="Shape" stroke="#FFFFFF" stroke-width="2"></path>
                <path d="M2,39 L15,41 L25,33 L35,43 L48,31" id="Shape" stroke="#FFFFFF" stroke-width="2"></path>
            </g>
        </g>
    </g>
</svg>