<?xml version="1.0" encoding="UTF-8" standalone="no"?>
<svg width="80px" height="80px" viewBox="0 0 80 80" version="1.1" xmlns="http://www.w3.org/2000/svg" xmlns:xlink="http://www.w3.org/1999/xlink" xmlns:sketch="http://www.bohemiancoding.com/sketch/ns">
    <!-- Generator: Sketch 3.4.4 (17249) - http://www.bohemiancoding.com/sketch -->
    <title>Oval 2 + price</title>
    <desc>Created with Sketch.</desc>
    <defs></defs>
    <g id="Page-1" stroke="none" stroke-width="1" fill="none" fill-rule="evenodd" sketch:type="MSPage">
        <g id="Oval-2-+-price" sketch:type="MSLayerGroup">
            <circle id="Oval-2" fill="#281E28" sketch:type="MSShapeGroup" cx="40" cy="40" r="40"></circle>
            <g id="price" transform="translate(13.000000, 18.000000)" sketch:type="MSShapeGroup">
                <rect id="Rectangle-path" x="0" y="0" width="50" height="50"></rect>
                <circle id="Oval" stroke="#FFFFFF" stroke-width="2" cx="39" cy="11" r="3"></circle>
                <path d="M47,5.5 C47,4.119 45.881,3 44.5,3 C44.344,3 29.624,3.002 29.624,3.002 C28.294,3.002 27.021,2.932 26.283,3.67 L3.554,26.398 C2.815,27.136 2.815,28.334 3.554,29.072 L20.928,46.446 C21.666,47.184 22.864,47.184 23.602,46.446 L46.33,23.717 C47.068,22.98 46.998,21.737 46.998,20.377 C46.998,20.377 47,5.656 47,5.5 L47,5.5 Z" id="Shape" stroke="#FFFFFF" stroke-width="2"></path>
                <path d="M31.996,24.975 C31.985,23.451 31.579,22.288 30.779,21.489 C29.957,20.667 28.926,20.339 27.688,20.503 C26.701,20.634 25.66,21.062 24.564,21.786 L29.216,26.438 L27.77,26.997 L23.446,22.673 C23.347,22.75 23.255,22.833 23.168,22.921 C23.08,23.009 22.998,23.091 22.921,23.167 C22.856,23.233 22.795,23.293 22.74,23.349 C22.685,23.404 22.635,23.462 22.592,23.529 L26.686,27.623 L25.256,28.199 L21.671,24.614 C19.676,27.333 19.539,29.552 21.26,31.273 C21.785,31.798 22.356,32.162 22.97,32.358 C23.42,32.502 24.088,32.587 24.976,32.621 L23.249,34.348 C22.044,34.085 20.964,33.477 20.01,32.524 C17.325,29.838 17.347,26.67 20.076,23.02 L18.81,21.754 L20.256,21.194 L21.013,21.951 C21.056,21.885 21.106,21.825 21.16,21.77 C21.214,21.715 21.27,21.66 21.325,21.605 L21.604,21.326 C21.692,21.238 21.779,21.162 21.868,21.096 L20.667,19.897 L22.098,19.321 L22.986,20.209 C24.597,19.124 26.158,18.56 27.672,18.516 C29.383,18.451 30.884,19.064 32.178,20.357 C33.175,21.355 33.822,22.692 34.117,24.37 L31.996,24.975 L31.996,24.975 Z" id="Shape" fill="#FFFFFF"></path>
            </g>
        </g>
    </g>
</svg>